<?xml version="1.0" encoding="utf-8"?>
<!-- Generator: Adobe Illustrator 17.0.0, SVG Export Plug-In . SVG Version: 6.00 Build 0)  -->
<!DOCTYPE svg PUBLIC "-//W3C//DTD SVG 1.1//EN" "http://www.w3.org/Graphics/SVG/1.1/DTD/svg11.dtd">
<svg version="1.1" id="Layer_1" xmlns="http://www.w3.org/2000/svg" xmlns:xlink="http://www.w3.org/1999/xlink" x="0px" y="0px"
	 width="400.043px" height="52.207px" viewBox="0 0 400.043 52.207" enable-background="new 0 0 400.043 52.207"
	 xml:space="preserve">
<g>
	<path d="M33.504,37.934c0,4.641-1.67,8.297-5.01,10.969s-7.986,4.008-13.939,4.008C9.07,52.91,4.219,51.879,0,49.816V39.691
		c3.468,1.547,6.404,2.637,8.807,3.27c2.402,0.633,4.6,0.949,6.592,0.949c2.391,0,4.224-0.457,5.502-1.371
		c1.277-0.914,1.916-2.273,1.916-4.078c0-1.008-0.281-1.904-0.844-2.689s-1.389-1.541-2.479-2.268s-3.311-1.886-6.662-3.48
		c-3.141-1.477-5.497-2.895-7.066-4.254c-1.57-1.359-2.825-2.941-3.762-4.746c-0.938-1.805-1.406-3.914-1.406-6.328
		c0-4.547,1.541-8.121,4.623-10.723C8.302,1.371,12.562,0.07,18,0.07c2.672,0,5.221,0.316,7.646,0.949s4.962,1.524,7.611,2.672
		l-3.516,8.473c-2.742-1.125-5.01-1.91-6.803-2.355c-1.793-0.445-3.557-0.668-5.291-0.668c-2.062,0-3.645,0.48-4.746,1.441
		c-1.102,0.961-1.652,2.215-1.652,3.762c0,0.961,0.223,1.799,0.668,2.514c0.445,0.715,1.154,1.406,2.127,2.074
		c0.972,0.668,3.275,1.869,6.908,3.604c4.804,2.297,8.098,4.6,9.879,6.908C32.613,31.752,33.504,34.582,33.504,37.934z"/>
	<path d="M78.328,16.84c0,5.532-1.729,9.762-5.186,12.691c-3.458,2.93-8.373,4.395-14.748,4.395h-4.676v18.281H42.82V0.809h16.418
		c6.234,0,10.974,1.342,14.221,4.025C76.705,7.518,78.328,11.52,78.328,16.84z M53.719,24.996h3.586
		c3.352,0,5.859-0.662,7.523-1.986c1.664-1.324,2.496-3.252,2.496-5.783c0-2.554-0.698-4.441-2.092-5.66
		c-1.395-1.218-3.581-1.828-6.557-1.828h-4.957V24.996z"/>
	<path d="M117.633,52.207H88.031V0.809h29.602v8.93H98.93v11.285h17.402v8.93H98.93v13.254h18.703V52.207z"/>
	<path d="M150.188,9.141c-4.102,0-7.277,1.542-9.527,4.623c-2.25,3.082-3.375,7.377-3.375,12.885
		c0,11.461,4.301,17.191,12.902,17.191c3.609,0,7.98-0.902,13.113-2.707v9.141c-4.219,1.758-8.93,2.637-14.133,2.637
		c-7.477,0-13.195-2.268-17.156-6.803s-5.941-11.045-5.941-19.529c0-5.344,0.973-10.025,2.918-14.045
		c1.945-4.02,4.74-7.102,8.385-9.246s7.916-3.217,12.814-3.217c4.992,0,10.008,1.208,15.047,3.621l-3.516,8.859
		c-1.922-0.914-3.855-1.71-5.801-2.391C153.973,9.48,152.062,9.141,150.188,9.141z"/>
	<path d="M216.879,26.016c0,8.461-2.408,14.941-7.225,19.441s-11.771,6.75-20.865,6.75h-14.555V0.809h16.137
		c8.391,0,14.906,2.215,19.547,6.645S216.879,18.07,216.879,26.016z M205.559,26.297c0-11.039-4.875-16.559-14.625-16.559h-5.801
		v33.469h4.676C200.309,43.207,205.559,37.57,205.559,26.297z"/>
	<path d="M274.184,26.438c0,8.508-2.109,15.047-6.328,19.617s-10.266,6.855-18.141,6.855s-13.922-2.285-18.141-6.855
		s-6.328-11.133-6.328-19.688s2.115-15.087,6.346-19.6C235.822,2.256,241.887,0,249.785,0s13.939,2.273,18.123,6.82
		C272.092,11.368,274.184,17.907,274.184,26.438z M236.672,26.438c0,5.743,1.09,10.066,3.27,12.973s5.438,4.359,9.773,4.359
		c8.695,0,13.043-5.777,13.043-17.332c0-11.578-4.324-17.367-12.973-17.367c-4.336,0-7.605,1.459-9.809,4.377
		S236.672,20.695,236.672,26.438z"/>
	<path d="M334.898,52.207h-12.41l-6.961-27c-0.258-0.961-0.697-2.947-1.318-5.959c-0.621-3.011-0.979-5.033-1.072-6.064
		c-0.141,1.266-0.492,3.299-1.055,6.1c-0.562,2.801-0.996,4.799-1.301,5.994l-6.926,26.93H291.48L278.367,0.809h10.723l6.574,28.055
		c1.148,5.18,1.98,9.668,2.496,13.465c0.141-1.336,0.463-3.404,0.967-6.205s0.979-4.975,1.424-6.521l7.488-28.793h10.301
		l7.488,28.793c0.328,1.289,0.738,3.258,1.23,5.906s0.867,4.922,1.125,6.82c0.234-1.828,0.609-4.107,1.125-6.838
		s0.984-4.939,1.406-6.627l6.539-28.055h10.723L334.898,52.207z"/>
	<path d="M400.043,52.207h-13.852l-22.359-38.883h-0.316c0.445,6.868,0.668,11.766,0.668,14.695v24.188h-9.738V0.809h13.746
		l22.324,38.496h0.246c-0.352-6.68-0.527-11.402-0.527-14.168V0.809h9.809V52.207z"/>
</g>
<g>
</g>
<g>
</g>
<g>
</g>
<g>
</g>
<g>
</g>
<g>
</g>
</svg>
