<?xml version="1.0" encoding="utf-8"?>
<!-- Generator: Adobe Illustrator 17.0.0, SVG Export Plug-In . SVG Version: 6.00 Build 0)  -->
<!DOCTYPE svg PUBLIC "-//W3C//DTD SVG 1.1//EN" "http://www.w3.org/Graphics/SVG/1.1/DTD/svg11.dtd">
<svg version="1.1" id="Layer_1" xmlns="http://www.w3.org/2000/svg" xmlns:xlink="http://www.w3.org/1999/xlink" x="0px" y="0px"
	 width="182px" height="128px" viewBox="0 0 182 128" enable-background="new 0 0 182 128" xml:space="preserve">
<g id="_x32_08x128_Cutout_1_">
	<path d="M167,128H15c-8.271,0-15-6.729-15-15V15C0,6.729,6.729,0,15,0h152c8.271,0,15,6.729,15,15v98
		C182,121.271,175.271,128,167,128z M15,10c-2.757,0-5,2.243-5,5v98c0,2.757,2.243,5,5,5h152c2.757,0,5-2.243,5-5V15
		c0-2.757-2.243-5-5-5H15z"/>
	<path d="M29.389,76.397l13.178-1.28c0.793,4.423,2.402,7.672,4.827,9.746c2.425,2.075,5.697,3.112,9.815,3.112
		c4.362,0,7.649-0.922,9.86-2.768c2.212-1.845,3.318-4.003,3.318-6.474c0-1.586-0.466-2.935-1.395-4.05
		c-0.931-1.113-2.555-2.082-4.873-2.905c-1.587-0.55-5.201-1.525-10.844-2.928c-7.26-1.8-12.355-4.011-15.283-6.635
		c-4.118-3.691-6.177-8.19-6.177-13.498c0-3.416,0.968-6.612,2.906-9.586c1.937-2.974,4.728-5.239,8.374-6.794
		C46.739,30.778,51.139,30,56.294,30c8.419,0,14.757,1.846,19.012,5.536c4.255,3.692,6.49,8.618,6.703,14.779l-13.544,0.595
		c-0.58-3.447-1.823-5.925-3.729-7.436c-1.907-1.51-4.767-2.265-8.579-2.265c-3.935,0-7.017,0.809-9.243,2.425
		c-1.434,1.037-2.15,2.425-2.15,4.164c0,1.587,0.671,2.944,2.013,4.072c1.708,1.434,5.857,2.929,12.446,4.484
		c6.589,1.556,11.462,3.166,14.619,4.828c3.157,1.663,5.628,3.934,7.412,6.817c1.785,2.883,2.677,6.445,2.677,10.685
		c0,3.843-1.068,7.443-3.203,10.798c-2.136,3.355-5.156,5.85-9.06,7.481c-3.905,1.632-8.77,2.448-14.597,2.448
		c-8.481,0-14.993-1.96-19.538-5.879C32.989,89.613,30.274,83.901,29.389,76.397z"/>
	<path fill="#010101" d="M128,99L98,64h20V30h20v34h20L128,99z"/>
</g>
<g>
</g>
<g>
</g>
<g>
</g>
<g>
</g>
<g>
</g>
<g>
</g>
</svg>
